<svg width="24" height="25" viewBox="0 0 24 25" fill="none" xmlns="http://www.w3.org/2000/svg">
<g id="Minus">
<path id="Vector" d="M19.0002 12.2505V12.7505C19.0002 13.0266 18.7764 13.2505 18.5003 13.2505H12.7502L12.5234 13.2504C12.5234 13.2504 12.5264 13.2504 12.2502 13.2504C12.2502 13.2504 12.0264 13.2504 11.7503 13.2504C11.4741 13.2504 11.5 13.2505 11.5 13.2505H11.2502H5.50025C5.2241 13.2505 5.00024 13.0266 5.00024 12.7505V12.2505C5.00024 11.9744 5.2241 11.7505 5.50025 11.7505H11.2502H11.4314C11.4314 11.7505 11.4741 11.7505 11.7503 11.7505H12.2502C12.5264 11.7505 12.5234 11.7505 12.5234 11.7505L12.7502 11.7505H18.5003C18.7764 11.7505 19.0002 11.9744 19.0002 12.2505Z" fill="#4E4F51"/>
</g>
</svg>
