<svg width="24" height="25" viewBox="0 0 24 25" fill="none" xmlns="http://www.w3.org/2000/svg">
<g id="Plus">
<path id="Vector" d="M19.0002 12.25V12.75C19.0002 13.0261 18.7764 13.25 18.5003 13.25H12.7502V19C12.7502 19.2761 12.5264 19.5 12.2502 19.5H11.7503C11.4741 19.5 11.2502 19.2761 11.2502 19V13.25H5.50025C5.2241 13.25 5.00024 13.0261 5.00024 12.75V12.25C5.00024 11.9739 5.2241 11.75 5.50025 11.75H11.2502V6C11.2502 5.72385 11.4741 5.5 11.7503 5.5H12.2502C12.5264 5.5 12.7502 5.72385 12.7502 6V11.75H18.5003C18.7764 11.75 19.0002 11.9739 19.0002 12.25Z" fill="#4E4F51"/>
</g>
</svg>
